# xmcd CD database file
#
# Track frame offsets:
#	182
#	35042
#	60052
#	81750
#	103977
#	129935
#	160755
#	193490
#
# Disc length: 2910 seconds
#
# Revision: 0
# Processed by: cddbd v1.5.2PL0 Copyright (c) Steve Scherf et al.
# Submitted via: CDex 1.70beta2
#
DISCID=650b5c08
DTITLE=SINGER Hal - No Rush
DYEAR=1992
DGENRE=Jazz
TTITLE0=Angel Eyes
TTITLE1=Lost Love
TTITLE2=Candied Sweets
TTITLE3=Amours
TTITLE4=A Child is born
TTITLE5=Bradley's Bounce
TTITLE6=The Dripper
TTITLE7=Night and Day
EXTD=YEAR: 1992
EXTT0=
EXTT1=
EXTT2=
EXTT3=
EXTT4=
EXTT5=
EXTT6=
EXTT7=
PLAYORDER=
